<svg width="117" height="83" fill="none" xmlns="http://www.w3.org/2000/svg"><path d="M109.7 40.4l-7.6-8.3a3 3 0 00-2.2-1h-8.8c-1.7 0-3 1.5-3 3.3v14.2c0 1.9 1.3 3.3 3 3.3h16.4c1.7 0 3.1-1.4 3.1-3.3v-5.9c0-.8-.3-1.7-.9-2.3zm-2.4 8h-16V34.7h8.5l7.5 8.1v5.6zM74 50.1v-.2l-.1-.5a1.8 1.8 0 00-.3-.3l-.2-.2-.1-.1-7.8-4.8c-.8-.5-1.8-.2-2.2.6-.5.9-.2 2 .6 2.4l2.4 1.5H12c-.9 0-1.6.8-1.6 1.8s.7 1.8 1.6 1.8h54.2l-2.4 1.5c-.8.5-1.1 1.6-.6 2.4.3.6.8 1 1.4 1 .3 0 .6-.2.8-.3l7.7-4.8.2-.2.2-.1a1.7 1.7 0 00.2-.4l.2-.4v-.2a2 2 0 000-.5zM58.8 0H5.5c-2.8 0-5 2.4-5 5.5v39c0 1 .7 1.9 1.6 1.9 1 0 1.7-.8 1.7-1.8V5.5c0-1 .7-2 1.7-2h53.3c1 0 1.7-.7 1.7-1.7S59.7 0 58.8 0z" fill="#A4341C"/><path d="M115 36.6L105.3 26a5 5 0 00-3.6-1.7H85.4V5.5c0-3-2.3-5.5-5-5.5h-10c-.8 0-1.6.8-1.6 1.8s.8 1.8 1.7 1.8h9.9c1 0 1.7.8 1.7 1.9v58H35.4l-.1-.1a11.8 11.8 0 00-.6-.8l-.1-.1a11.7 11.7 0 00-1.2-1.2l-.1-.1c-.3-.3-.5-.5-.8-.6l-.1-.1a11 11 0 00-3.2-1.5H29c-.3-.2-.7-.2-1-.3h-.2a10 10 0 00-1.3-.1 10.4 10.4 0 00-4.3.9h-.1l-1.8 1v.1a11.3 11.3 0 00-2 1.9l-.2.1a11.2 11.2 0 00-.6 1h-12c-1 0-1.7-.9-1.7-2v-4.5c0-1-.8-1.8-1.7-1.8-1 0-1.7.8-1.7 1.8v4.6c0 3 2.3 5.4 5.1 5.4H6v2c0 2.3 1.8 4.3 4 4.3h5.7c.5 2 1.5 4 2.9 5.5 2 2.3 4.9 3.5 7.8 3.5 3 0 5.7-1.2 7.8-3.5 1.5-1.5 2.5-3.5 3-5.5h50.7c.5 2 1.4 4 3 5.5 2 2.3 4.8 3.5 7.7 3.5 3 0 5.8-1.2 7.8-3.5 1.5-1.5 2.5-3.5 3-5.5h.9c3.4 0 6.1-3 6.1-6.6V66l.2-.6V40.5c0-1.4-.6-2.8-1.5-3.9zM15.5 69.8H10c-.4 0-.7-.3-.7-.8v-1.9h6.5c-.2 1-.4 1.8-.4 2.7zm18.8.7v.8c-.2 1.9-1 3.7-2.3 5.1a7.4 7.4 0 01-5.5 2.5c-2 0-4-.9-5.5-2.5a9 9 0 01-1-10.6h.1a8.5 8.5 0 01.5-.7l.1-.1.3-.4a7.3 7.3 0 0111.3.4 8.7 8.7 0 01.5.7l.2.2a8.7 8.7 0 01.5 1v.1l.2.3.1.4.1.4v.1l.1.3v.1a9 9 0 01.2.6v.5a9 9 0 010 .8zm53.7-2.7v.1a12.6 12.6 0 00-.3 1.7v.2H37.4v-.2a12.4 12.4 0 000-1l-.1-.2-.1-.5v-.1L37 67h51l-.1.7zm18.5 2.7v.4c-.1 2-.9 4-2.3 5.5a7.4 7.4 0 01-5.5 2.5c-2 0-4-.9-5.5-2.5A8.6 8.6 0 0191 71v-.4-.8-.3-.2a9.2 9.2 0 01.2-.6v-.1-.3h.1l.1-.4.1-.4A8.4 8.4 0 0192 66l.2-.2v-.2a8.2 8.2 0 01.5-.6l.1-.1.3-.4a7.4 7.4 0 0111.3.4h.1a8.6 8.6 0 01.5.7v.2l.2.2.4.9.2.3.1.4.1.4v.1l.1.3v.1l.1.2V69.4l.1.3v.8zm3.9-.7h-.6v-.2a13.5 13.5 0 00-.2-1v-.2l-.1-.5v-.1l-.2-.7h4c-.3 1.6-1.5 2.7-3 2.7zm-2.7-6.2l-.1-.2a15.7 15.7 0 00-.6-.8l-.1-.1a11.8 11.8 0 00-.8-.8v-.1l-.4-.3a10.5 10.5 0 00-14 0l-.3.3a11.4 11.4 0 00-.8.9l-.2.1a11.4 11.4 0 00-.5.8l-.1.1h-4.3V27.9h16.2c.4 0 1 .2 1.2.6l10 10.8c.3.3.4.8.4 1.3v23h-5.6z" fill="#A4341C"/><path d="M26.4 64.8c-2.9 0-5.3 2.6-5.3 5.7 0 3.2 2.4 5.7 5.3 5.7 3 0 5.3-2.5 5.3-5.7 0-3.1-2.4-5.7-5.3-5.7zm0 7.8c-1 0-2-1-2-2 0-1.3 1-2.2 2-2.2 1.1 0 2 1 2 2.1 0 1.2-.9 2.1-2 2.1zM98.6 64.8c-2.9 0-5.3 2.6-5.3 5.7 0 3.2 2.4 5.7 5.3 5.7 3 0 5.3-2.5 5.3-5.7 0-3.1-2.4-5.7-5.3-5.7zm0 7.8c-1 0-2-1-2-2 0-1.3 1-2.2 2-2.2 1.1 0 2 1 2 2.1 0 1.2-.9 2.1-2 2.1zM23 19h-9c-.8 0-1.6.3-1.6 1v17.8c0 .7 1 1.1 1.8 1.1.9 0 1.8-.4 1.8-1v-7.6h4.2c.7 0 1-.9 1-1.4 0-.7-.4-1.4-1-1.4H16v-5.3h7c.6 0 1-.8 1-1.7 0-.6-.3-1.6-1-1.6zM40.4 36.7L37 30.2h.2c1.4-.6 3-2 3-5.5 0-3.9-2-5.8-6.1-5.8h-5.4c-.7 0-1 .6-1 1v18c0 .6.9 1 1.8 1s1.8-.4 1.8-1v-7h2l3.7 7.5c.2.6.7.7 1 .7 1.1 0 2.4-1.1 2.4-2l-.1-.4zm-6.2-8.8h-2.8v-5.7h2.8c1.7 0 2.5 1 2.5 2.9s-.8 2.8-2.5 2.8zM55.7 35.6h-7.2v-5.3h4.1c.8 0 1-.9 1-1.4 0-.7-.3-1.4-1-1.4h-4v-5.3h7.1c.7 0 1-.8 1-1.7 0-.6-.2-1.6-1-1.6h-9.2c-.8 0-1.6.4-1.6 1.1v17.8c0 .8.8 1.1 1.6 1.1h9.2c.8 0 1-1 1-1.6 0-.8-.3-1.7-1-1.7zM71.7 35.6h-7.2v-5.3h4.1c.8 0 1-.9 1-1.4 0-.7-.3-1.4-1-1.4h-4.1v-5.3h7.2c.7 0 1-.8 1-1.7 0-.6-.2-1.6-1-1.6h-9.3c-.7 0-1.5.4-1.5 1.1v17.8c0 .8.8 1.1 1.5 1.1h9.3c.8 0 1-1 1-1.6 0-.8-.3-1.7-1-1.7z" fill="#A4341C"/></svg>