<svg width="93" height="93" fill="none" xmlns="http://www.w3.org/2000/svg"><path d="M91.9 51l-2.1-3.3c-.5-.7-.5-1.7 0-2.4l2-3.4a5 5 0 00-1.1-6.5l-3-2.5c-.8-.5-1.1-1.4-1-2.3l.9-3.8a5 5 0 00-3.4-5.8l-3.7-1.2c-.9-.3-1.5-1-1.6-2l-.5-3.8a5 5 0 00-5.2-4.3l-3.9.1c-.9 0-1.7-.4-2.1-1.2l-1.9-3.5A5 5 0 0059.1 3l-3.7 1.4c-.8.4-1.8.2-2.4-.4l-3-2.6a5 5 0 00-6.6 0l-3 2.6c-.6.6-1.6.8-2.4.4L34.4 3A5 5 0 0028 5l-1.9 3.5c-.4.8-1.2 1.3-2.1 1.2h-4a5 5 0 00-5 4.2l-.6 3.9c-.1.9-.7 1.6-1.6 1.9L9.2 21a5 5 0 00-3.4 5.8l.9 3.8c.1.9-.2 1.8-.9 2.3l-3 2.5a5 5 0 00-1.2 6.5l2 3.4c.5.7.5 1.7 0 2.4l-2 3.4a5 5 0 001.1 6.5l3.1 2.5c.7.5 1 1.4.9 2.3l-.9 3.8A5 5 0 009.2 72l3.7 1.2c.9.3 1.5 1 1.6 2l.6 3.8a5 5 0 005 4.3l4-.1c.9 0 1.7.4 2.1 1.2l1.9 3.5a5 5 0 006.3 2.2l3.6-1.4c.8-.4 1.8-.2 2.4.4l3 2.6a5 5 0 006.6 0l3-2.6c.6-.6 1.6-.8 2.4-.4l3.7 1.4c2.3 1 5 0 6.2-2.2l1.9-3.5c.4-.8 1.2-1.3 2.1-1.2h4a5 5 0 005-4.2l.6-3.9c.1-.9.7-1.6 1.6-1.9l3.7-1.2a5 5 0 003.4-5.8l-.8-3.8c-.2-.9.1-1.8.8-2.3l3.1-2.5a5 5 0 001.2-6.5zM89 55.7L86 58a5 5 0 00-1.8 5l.8 3.8c.2 1.1-.4 2.3-1.6 2.7l-3.7 1.2a5 5 0 00-3.4 4l-.6 4c-.1 1.1-1.2 2-2.4 2l-3.9-.2a5 5 0 00-4.6 2.6L63 86.6c-.6 1-1.8 1.5-3 1l-3.6-1.4a5 5 0 00-5.2 1l-3 2.6c-.8.8-2.2.8-3 0l-3-2.7a5 5 0 00-5.2-.9l-3.6 1.5c-1.1.4-2.4 0-3-1L28.6 83a5 5 0 00-4.6-2.6l-4 .1c-1.1 0-2.2-.8-2.3-2l-.6-3.9a5 5 0 00-3.4-4L10 69.5a2.3 2.3 0 01-1.6-2.7l.8-3.9a5 5 0 00-1.8-5l-3-2.3c-1-.8-1.2-2.1-.6-3.1l2-3.4a5 5 0 000-5.2l-2-3.4c-.6-1-.4-2.3.5-3L7.4 35a5 5 0 001.8-5l-.8-3.8c-.2-1.1.5-2.3 1.6-2.7l3.7-1.2a5 5 0 003.4-4l.6-4c.1-1.1 1.2-2 2.4-2l4 .2c1.8 0 3.6-1 4.5-2.6l1.8-3.5c.6-1 1.9-1.5 3-1L37 6.7a5 5 0 005.2-1l3-2.6c.8-.8 2.2-.8 3 0l3 2.7a5 5 0 005.2.9L60 5.3c1.2-.4 2.4 0 3 1l1.8 3.6a5 5 0 004.6 2.6l4-.1c1.1 0 2.2.8 2.3 2l.6 3.9a5 5 0 003.4 4l3.7 1.2c1.2.4 1.8 1.6 1.6 2.7l-.8 3.9a5 5 0 001.8 5l3 2.3c1 .8 1.2 2.1.6 3.1l-2 3.4a5 5 0 000 5.2l2 3.4c.6 1 .4 2.3-.5 3z" fill="#A4341C"/><path d="M80.6 49.8c-.7 0-1.4.4-1.5 1.1a32.6 32.6 0 01-64.8 0 1.3 1.3 0 00-2.6.4 35.3 35.3 0 0070 0c.1-.7-.4-1.4-1.1-1.5zM81.7 41.7a35.3 35.3 0 00-70 0 1.3 1.3 0 002.6.3 32.6 32.6 0 0164.8 0 1.3 1.3 0 002.6-.3z" fill="#A4341C"/><path d="M57.7 44.8c-4 0-7.1 1.8-7.1 6.5v7.8c0 4.7 3 6.4 7 6.4s7.2-1.7 7.2-6.4v-7.8c0-4.7-3.1-6.5-7.1-6.5zM61 59.1c0 2.1-1.3 3-3.3 3-2 0-3.3-.9-3.3-3v-7.8c0-2.1 1.2-3 3.3-3 2 0 3.3.9 3.3 3v7.8zM34.4 27c-4 0-7 1.7-7 6.5v7.7c0 4.8 3 6.5 7 6.5s7.1-1.7 7.1-6.5v-7.7c0-4.8-3-6.5-7-6.5zm3.3 14.2c0 2.2-1.2 3.1-3.3 3.1-2 0-3.2-1-3.2-3v-7.8c0-2.2 1.2-3.1 3.2-3.1s3.3.9 3.3 3v7.8zM55.6 25c-.6 0-1.2.2-1.6.9L34.8 64.5c-.2.2-.3.5-.3.8 0 1 .9 2 2 2 .8 0 1.6-.5 1.9-1l19.3-38.5.1-.9c0-1.2-1.1-2-2.2-2z" fill="#A4341C"/></svg>