<svg width="93" height="93" viewBox="0 0 93 93" fill="none" xmlns="http://www.w3.org/2000/svg">
<path d="M91.8629 51.0712L89.7872 47.7384C89.3116 46.9746 89.3116 46.0256 89.7872 45.2616L91.8629 41.9286C93.2121 39.7622 92.7141 36.9408 90.7046 35.366L87.6132 32.9433C86.9047 32.3882 86.5798 31.4963 86.7654 30.6159L87.5748 26.7746C88.101 24.2777 86.6673 21.7965 84.2398 21.0033L80.5055 19.783C79.6496 19.5033 79.039 18.7764 78.912 17.8858L78.3576 13.9996C77.9975 11.4735 75.7962 9.63495 73.2482 9.71596L69.3212 9.84529C68.4207 9.87562 67.5985 9.40027 67.1742 8.60686L65.3229 5.14443C64.1195 2.8939 61.425 1.91395 59.0551 2.8652L55.4094 4.32868C54.5738 4.6638 53.6384 4.49924 52.9681 3.89855L50.043 1.27784C48.1417 -0.425947 45.2742 -0.425947 43.3729 1.27784L40.448 3.89892C39.7777 4.4996 38.8425 4.66435 38.0067 4.32886L34.361 2.86538C31.9911 1.91449 29.2966 2.89408 28.0932 5.14461L26.2419 8.60686C25.8175 9.40027 24.9954 9.87489 24.0949 9.84529L20.1679 9.71596C17.6136 9.63476 15.4186 11.4735 15.0585 13.9996L14.5041 17.8858C14.377 18.7764 13.7665 19.5035 12.9106 19.783L9.17631 21.0033C6.74884 21.7965 5.31512 24.2775 5.84126 26.7746L6.65066 30.6159C6.8361 31.4963 6.51122 32.388 5.80272 32.9433L2.71129 35.366C0.701792 36.9408 0.203825 39.7622 1.55301 41.9286L3.62868 45.2616C4.10429 46.0254 4.10429 46.9744 3.62868 47.7384L1.55319 51.0714C0.204007 53.2378 0.701973 56.0592 2.71147 57.634L5.8029 60.0569C6.5114 60.612 6.83629 61.5039 6.65066 62.3843L5.84126 66.2256C5.31512 68.7225 6.74884 71.2037 9.17631 71.9969L12.9106 73.2172C13.7665 73.4969 14.377 74.2238 14.5041 75.1144L15.0585 79.0006C15.4188 81.5269 17.6208 83.3649 20.1679 83.2842L24.0949 83.1549C24.9961 83.1262 25.8175 83.5997 26.2419 84.3933L28.0932 87.8558C29.2966 90.1063 31.9913 91.0862 34.361 90.135L38.0067 88.6715C38.8421 88.336 39.7775 88.5008 40.448 89.1016L43.3729 91.7225C44.3238 92.5742 45.5157 93 46.708 93C47.9001 93 49.0925 92.5741 50.043 91.7222L52.9679 89.1011C53.6382 88.5004 54.574 88.3356 55.4092 88.6711L59.0549 90.1346C61.425 91.0857 64.1195 90.1061 65.3227 87.8554L67.174 84.3931C67.5984 83.5996 68.4196 83.1253 69.321 83.1547L73.248 83.284C75.8005 83.3671 77.9973 81.5265 78.3575 79.0004L78.9118 75.1142C79.0389 74.2236 79.6494 73.4965 80.5053 73.217L84.2396 71.9967C86.6671 71.2035 88.1008 68.7225 87.5747 66.2254L86.7653 62.3841C86.5798 61.5037 86.9047 60.612 87.6132 60.0568L90.7046 57.6338C92.7141 56.059 93.2121 53.2376 91.8629 51.0712ZM89.0698 55.5521L85.9786 57.9748C84.4701 59.1567 83.7785 61.0552 84.1734 62.9294L84.9828 66.7707C85.2301 67.9438 84.5565 69.1092 83.4162 69.4817L79.6819 70.702C77.8599 71.2974 76.5601 72.8452 76.2898 74.7409L75.7355 78.6271C75.5662 79.8138 74.5339 80.679 73.3353 80.6394L69.4082 80.51C67.4904 80.4481 65.741 81.4571 64.838 83.1464L62.9867 86.6086C62.4214 87.6658 61.1557 88.1264 60.0423 87.6794L56.3966 86.2159C54.618 85.5022 52.6265 85.8528 51.1995 87.1316L48.2746 89.7526C47.3816 90.5529 46.0345 90.5529 45.1415 89.7526L42.2166 87.1317C41.2787 86.2913 40.0973 85.8517 38.8925 85.8517C38.264 85.8517 37.6291 85.9714 37.0193 86.2161L33.3736 87.6796C32.2602 88.1264 30.9945 87.6661 30.4292 86.609L28.5779 83.1465C27.6747 81.4575 25.9208 80.4492 24.0077 80.5102L20.0807 80.6395C18.8797 80.6784 17.8497 79.814 17.6805 78.6273L17.1261 74.7411C16.8558 72.8452 15.5559 71.2976 13.734 70.7022L9.99971 69.4819C8.85942 69.1094 8.18601 67.9438 8.43309 66.7709L9.24249 62.9296C9.63737 61.0556 8.94578 59.1571 7.43752 57.9751L4.34609 55.5524C3.40215 54.8126 3.16835 53.4872 3.80213 52.4694L5.87781 49.1365C6.89047 47.5105 6.89047 45.4901 5.87781 43.864L3.80213 40.5311C3.16835 39.5134 3.40234 38.1881 4.34609 37.4483L7.43734 35.0256C8.94578 33.8436 9.63737 31.9451 9.24249 30.071L8.43309 26.2298C8.18583 25.0568 8.85942 23.8914 9.99971 23.5188L13.734 22.2986C15.5561 21.7031 16.8558 20.1554 17.1261 18.2596L17.6805 14.3734C17.8497 13.1867 18.8813 12.3241 20.0807 12.3612L24.0077 12.4905C25.9223 12.5506 27.6747 11.5433 28.5779 9.85419L30.4292 6.39193C30.9947 5.33478 32.2602 4.87414 33.3736 5.32116L37.0193 6.78464C38.7979 7.49831 40.7893 7.14774 42.2164 5.86899L45.1413 3.24792C46.0344 2.44761 47.3814 2.44761 48.2744 3.24792L51.1993 5.86881C52.6263 7.14756 54.6178 7.49831 56.3964 6.78446L60.0421 5.32098C61.155 4.87378 62.4211 5.33442 62.9865 6.39157L64.8378 9.854C65.741 11.5431 67.4931 12.5521 69.4081 12.4903L73.3351 12.361C74.5332 12.322 75.566 13.1864 75.7353 14.3732L76.2896 18.2594C76.5599 20.1554 77.8599 21.703 79.6817 22.2984L83.416 23.5186C84.5563 23.8912 85.2297 25.0568 84.9827 26.2296L84.1732 30.0708C83.7784 31.9448 84.47 33.8433 85.9782 35.0252L89.0696 37.4479C90.0136 38.1878 90.2474 39.5132 89.6136 40.5309L87.5379 43.8638C86.5253 45.4899 86.5253 47.5103 87.5379 49.1363L89.6136 52.4693C90.2477 53.487 90.0138 54.8122 89.0698 55.5521Z" fill="#A4341C"/>
<path d="M80.5984 49.8071C79.8733 49.7081 79.2064 50.2161 79.1079 50.9401C78.0533 58.6975 74.2157 65.8336 68.3017 71.034C62.3345 76.281 54.6654 79.1705 46.7072 79.1705C38.749 79.1705 31.0797 76.2808 25.1126 71.0338C19.1987 65.8336 15.3611 58.6975 14.3065 50.94C14.2081 50.2159 13.5405 49.7084 12.816 49.8069C12.0913 49.9052 11.5836 50.572 11.6821 51.296C12.8224 59.6841 16.9708 67.3993 23.3629 73.02C29.814 78.6925 38.1045 81.8165 46.7074 81.8165C55.3102 81.8165 63.6008 78.6925 70.0518 73.02C76.4439 67.3993 80.5924 59.6841 81.7326 51.296C81.831 50.5721 81.3232 49.9053 80.5984 49.8071Z" fill="#A4341C"/>
<path d="M81.7279 41.6654C80.5793 33.2859 76.4279 25.5802 70.0383 19.9677C63.5895 14.303 55.3039 11.1833 46.7077 11.1833C38.1096 11.1833 29.8223 14.3043 23.3729 19.9713C16.9826 25.5864 12.8322 33.295 11.6861 41.677C11.5872 42.401 12.0942 43.0682 12.8189 43.1672C12.8796 43.1755 12.9402 43.1795 12.9998 43.1795C13.6516 43.1795 14.2196 42.6985 14.3103 42.0354C15.37 34.2835 19.2098 27.1534 25.1219 21.9585C31.0877 16.7165 38.7537 13.8295 46.7077 13.8295C54.6597 13.8295 62.3245 16.715 68.2896 21.9548C74.201 27.1474 78.0416 34.275 79.1037 42.0243C79.203 42.7483 79.8711 43.2556 80.5954 43.1557C81.3201 43.0566 81.827 42.3894 81.7279 41.6654Z" fill="#A4341C"/>
<path d="M57.6625 44.8486C53.6163 44.8486 50.5685 46.5811 50.5685 51.3063V59.0765C50.5685 63.8016 53.6163 65.5342 57.6625 65.5342C61.6563 65.5342 64.7566 63.8016 64.7566 59.0765V51.3063C64.7566 46.5811 61.6563 44.8486 57.6625 44.8486ZM60.973 59.0765C60.973 61.2292 59.7119 62.1741 57.6625 62.1741C55.6132 62.1741 54.4044 61.2292 54.4044 59.0765V51.3063C54.4044 49.1537 55.6132 48.2088 57.6625 48.2088C59.7119 48.2088 60.973 49.1537 60.973 51.3063V59.0765Z" fill="#A4341C"/>
<path d="M34.4356 26.998C30.3893 26.998 27.3413 28.7307 27.3413 33.4557V41.226C27.3413 45.9512 30.3893 47.6836 34.4356 47.6836C38.4291 47.6836 41.5296 45.9512 41.5296 41.226V33.4557C41.5296 28.7307 38.4291 26.998 34.4356 26.998ZM37.7461 41.226C37.7461 43.3786 36.4849 44.3235 34.4356 44.3235C32.3861 44.3235 31.1774 43.3786 31.1774 41.226V33.4557C31.1774 31.3031 32.3861 30.3582 34.4356 30.3582C36.4849 30.3582 37.7461 31.3031 37.7461 33.4557V41.226Z" fill="#A4341C"/>
<path d="M55.6127 24.9504C54.982 24.9504 54.3515 25.2129 54.0361 25.8953L34.7504 64.484C34.5928 64.7465 34.5403 65.0091 34.5403 65.2716C34.5403 66.2165 35.3811 67.214 36.5898 67.214C37.3255 67.214 38.0611 66.8466 38.3766 66.2165L57.662 27.7855C57.7671 27.5228 57.8196 27.2604 57.8196 26.9454C57.8196 25.7379 56.6637 24.9504 55.6127 24.9504Z" fill="#A4341C"/>
</svg>
