<svg width="71" height="98" fill="none" xmlns="http://www.w3.org/2000/svg"><path d="M65.5 54.7H54.3A48 48 0 0065 21c0-1.1-.7-2-1.8-2.5a3 3 0 00-3.1.6L49.7 29.3c-.6.5-.6 1.4 0 2 .5.6 1.4.6 2 0L62 21.1h.1c.3 6.6-.2 23-11.8 33.6h-7.2c0-.3.2-.5.3-.8 2.8-2.8 8-8.7 11.5-15.4.4-.7.1-1.6-.6-2-.7-.3-1.5 0-1.9.7-1.8 3.6-4.3 7-6.5 9.7.8-3.3 1.2-6.6 1.2-10 0-13-6.2-29-8.9-35.2-.4-1-1.4-1.7-2.5-1.7-1.2 0-2.2.7-2.6 1.7a103 103 0 00-8.9 35.2c0 3.4.4 6.7 1.3 10a56.6 56.6 0 01-6.6-9.7c-.4-.8-1.2-1-2-.7-.6.4-.9 1.3-.5 2a67.7 67.7 0 0011.5 15.4l.4.8H21C9.5 44.2 9 27.7 9.2 21.1h.1l10.4 10.2c.5.6 1.4.6 2 0 .5-.6.5-1.5 0-2L11.4 19a3 3 0 00-3.2-.6c-1 .4-1.8 1.4-1.8 2.5A48 48 0 0017 54.7H5.8c-3 0-5.4 2.5-5.4 5.5 0 3.1 2.4 5.6 5.4 5.6H7l6.4 27.5a6 6 0 005.8 4.7h33.1a6 6 0 005.8-4.7l6.4-27.5h1c3.1 0 5.6-2.5 5.6-5.6 0-3-2.5-5.5-5.5-5.5zM35.7 3a100 100 0 018.6 34 39 39 0 01-4.4 17.8H37v-28c0-.7-.7-1.3-1.4-1.3-.8 0-1.5.6-1.5 1.4v28h-2.8a39 39 0 01-4.3-17.9c0-12.4 6-27.8 8.6-34zm29.8 60H21c-.8 0-1.5.7-1.5 1.5 0 .7.7 1.4 1.5 1.4h40.5l-6.2 26.9a3.1 3.1 0 01-3 2.4H19c-1.5 0-2.7-1-3-2.4l-6.3-27h4.5c.8 0 1.4-.6 1.4-1.3 0-.8-.6-1.5-1.4-1.5H5.8a2.7 2.7 0 01-2.6-2.7c0-1.4 1.2-2.6 2.6-2.6h59.7c1.4 0 2.6 1.2 2.6 2.6 0 1.5-1.2 2.7-2.6 2.7z" fill="#A4341C"/></svg>