<svg width="71" height="98" viewBox="0 0 71 98" fill="none" xmlns="http://www.w3.org/2000/svg">
<path d="M65.4803 54.7077H54.3466C64.7398 43.3887 65.256 27.5596 64.9492 20.94C64.8962 19.7966 64.1952 18.8225 63.12 18.3974C62.0274 17.965 60.7861 18.2184 59.9575 19.0422L49.671 29.2668C49.1114 29.823 49.1046 30.7318 49.6557 31.2968C50.2067 31.8615 51.1071 31.8684 51.6668 31.3123L61.9531 21.0878C61.9705 21.0706 61.9862 21.0549 62.0255 21.0589C62.061 21.0597 62.0921 21.0729 62.1084 21.0836C62.4152 27.726 61.8586 44.1634 50.303 54.7077H43.0669C43.1917 54.4442 43.3117 54.1787 43.4308 53.9128C46.2229 51.0681 51.4689 45.2461 54.9436 38.4725C55.3046 37.7685 55.0321 36.9022 54.3345 36.5377C53.6372 36.1731 52.779 36.448 52.4177 37.1525C50.5571 40.7797 48.1117 44.1658 45.8577 46.9144C46.6776 43.641 47.1016 40.283 47.1016 36.9251C47.1016 23.89 40.8978 7.93972 38.2305 1.68705C37.7931 0.662074 36.7845 0 35.6605 0C34.5366 0 33.528 0.662074 33.0907 1.68686C30.4235 7.93953 24.2195 23.8902 24.2195 36.9249C24.2195 40.2826 24.6437 43.6408 25.4634 46.9142C23.2095 44.1657 20.7641 40.7797 18.9033 37.1525C18.5421 36.4483 17.6835 36.1735 16.9866 36.5377C16.289 36.9022 16.0165 37.7687 16.3775 38.4725C19.8522 45.2461 25.0984 51.0681 27.8903 53.9128C28.0093 54.1787 28.1294 54.4442 28.2541 54.7077H21.0178C9.4651 44.166 8.90609 27.7344 9.21271 21.0834C9.22921 21.0727 9.26012 21.0597 9.29539 21.0589C9.33123 21.0545 9.35038 21.0708 9.36764 21.0878L19.669 31.3271C20.2284 31.8831 21.129 31.8764 21.6802 31.3116C22.2313 30.7465 22.2244 29.8377 21.6648 29.2815L11.3633 19.0422C10.5348 18.2186 9.29311 17.9652 8.20087 18.3974C7.1255 18.8225 6.42465 19.7968 6.37174 20.9398C6.06493 27.5596 6.58109 43.3889 16.9743 54.7077H5.84079C2.81399 54.7077 0.3517 57.1931 0.3517 60.2482C0.3517 63.3034 2.81399 65.7888 5.84079 65.7888H6.92848L13.2952 93.3471C13.9279 96.0867 16.3163 98 19.1032 98H52.2181C55.0048 98 57.3933 96.0867 58.0261 93.3471L64.3928 65.7888H65.4805C68.5073 65.7888 70.9696 63.3034 70.9696 60.2482C70.9694 57.1933 68.5071 54.7077 65.4803 54.7077ZM35.6605 2.92277C38.2808 9.0805 44.257 24.492 44.257 36.9251C44.257 44.5242 41.9692 50.6821 39.8905 54.7079H37.0827V26.7946C37.0827 26.0016 36.4462 25.359 35.6605 25.359C34.8749 25.359 34.2383 26.0016 34.2383 26.7946V54.7077H31.4306C29.3519 50.6817 27.0639 44.5238 27.0639 36.9249C27.0639 24.4925 33.0401 9.08031 35.6605 2.92277ZM65.4803 62.9179H20.9648C20.1791 62.9179 19.5426 63.5605 19.5426 64.3535C19.5426 65.1465 20.1791 65.789 20.9648 65.789H61.4722L55.2561 92.6952C54.925 94.128 53.6757 95.1289 52.2181 95.1289H19.1032C17.6454 95.1289 16.3963 94.128 16.0652 92.6952L9.8491 65.789H14.3167C15.1023 65.789 15.7389 65.1465 15.7389 64.3535C15.7389 63.5605 15.1023 62.9179 14.3167 62.9179H5.84079C4.38257 62.9179 3.19608 61.7203 3.19608 60.2484C3.19608 58.7765 4.38257 57.579 5.84079 57.579H65.4803C66.9385 57.579 68.125 58.7765 68.125 60.2484C68.125 61.7203 66.9385 62.9179 65.4803 62.9179Z" fill="#A4341C"/>
</svg>
